<svg xmlns="http://www.w3.org/2000/svg" width="1920" height="1080" viewBox="0 0 1920 1080" fill="none"><style>
@keyframes a0_t { 0% { transform: translate(0px,0px); } 21.428% { transform: translate(0px,0px); } 28.571% { transform: translate(1977.2px,246.5px); } 57.143% { transform: translate(1977.2px,246.5px); } 64.286% { transform: translate(793.9px,370.3px); } 92.857% { transform: translate(793.9px,370.3px); } 100% { transform: translate(0px,0px); } }
@keyframes a1_t { 0% { transform: translate(0px,0px); } 28.571% { transform: translate(0px,0px); } 35.714% { transform: translate(461.1px,-620.1px); } 64.286% { transform: translate(461.1px,-620.1px); } 71.428% { transform: translate(1655.2px,30.8px); } 92.857% { transform: translate(1655.2px,30.8px); } 100% { transform: translate(0px,0px); } }
@keyframes a2_t { 0% { transform: translate(0px,0px); } 21.428% { transform: translate(0px,0px); } 28.571% { transform: translate(342.6px,673.8px); } 57.143% { transform: translate(342.6px,673.8px); } 64.286% { transform: translate(-530.6px,574.3px); } 92.857% { transform: translate(-530.6px,574.3px); } 100% { transform: translate(0px,0px); } }
@keyframes a3_t { 0% { transform: translate(0px,0px); } 28.571% { transform: translate(0px,0px); } 35.714% { transform: translate(-1180.3px,281.6px); } 64.286% { transform: translate(-1180.3px,281.6px); } 71.428% { transform: translate(96.8px,206.9px); } 92.857% { transform: translate(96.8px,206.9px); } 100% { transform: translate(0px,0px); } }
@keyframes a4_t { 0% { transform: translate(0px,0px); } 21.428% { transform: translate(0px,0px); } 28.571% { transform: translate(-444.5px,-414.7px); } 57.143% { transform: translate(-444.5px,-414.7px); } 64.286% { transform: translate(83.2px,52.4px); } 92.857% { transform: translate(83.2px,52.4px); } 100% { transform: translate(0px,0px); } }
@keyframes a5_t { 0% { transform: translate(0px,0px); } 28.571% { transform: translate(0px,0px); } 35.714% { transform: translate(120.6px,-285px); } 64.286% { transform: translate(120.6px,-285px); } 71.428% { transform: translate(1384.8px,-276px); } 92.857% { transform: translate(1384.8px,-276px); } 100% { transform: translate(0px,0px); } }
@keyframes a6_t { 0% { transform: translate(0px,0px); } 21.428% { transform: translate(0px,0px); } 28.571% { transform: translate(811.5px,31.2px); } 57.143% { transform: translate(811.5px,31.2px); } 64.286% { transform: translate(27.1px,-261.5px); } 71.428% { transform: translate(811.5px,31.2px); } 92.857% { transform: translate(811.5px,31.2px); } 100% { transform: translate(0px,0px); } }
@keyframes a7_t { 0% { transform: translate(0px,0px); } 28.571% { transform: translate(0px,0px); } 35.714% { transform: translate(2512px,197.6px); } 64.286% { transform: translate(2512px,197.6px); } 71.428% { transform: translate(1295.3px,433.8px); } 92.857% { transform: translate(1295.3px,433.8px); } 100% { transform: translate(0px,0px); } }
@keyframes a8_t { 0% { transform: translate(0px,0px); } 21.428% { transform: translate(0px,0px); } 28.571% { transform: translate(248.5px,470px); } 57.143% { transform: translate(248.5px,470px); } 64.286% { transform: translate(-20.8px,-129.7px); } 92.857% { transform: translate(-20.8px,-129.7px); } 100% { transform: translate(0px,0px); } }
@keyframes a9_t { 0% { transform: translate(0px,0px); } 28.571% { transform: translate(0px,0px); } 35.714% { transform: translate(-656.3px,550.2px); } 64.286% { transform: translate(-656.3px,550.2px); } 71.428% { transform: translate(254.3px,412px); } 92.857% { transform: translate(254.3px,412px); } 100% { transform: translate(0px,0px); } }
@keyframes a10_t { 0% { transform: translate(0px,0px); } 21.428% { transform: translate(0px,0px); } 28.571% { transform: translate(-1545.3px,739.9px); } 57.143% { transform: translate(-1545.3px,739.9px); } 64.286% { transform: translate(-355.2px,50.3px); } 92.857% { transform: translate(-355.2px,50.3px); } 100% { transform: translate(0px,0px); } }
@keyframes a11_t { 0% { transform: translate(0px,0px); } 21.428% { transform: translate(0px,0px); } 28.571% { transform: translate(-450.2px,-787.9px); } 64.286% { transform: translate(-450.2px,-787.9px); } 71.428% { transform: translate(-1525.3px,-155px); } 92.857% { transform: translate(-1525.3px,-155px); } 100% { transform: translate(0px,0px); } }
@keyframes a12_t { 0% { transform: translate(0px,0px); } 28.571% { transform: translate(0px,0px); } 35.714% { transform: translate(761.9px,596.5px); } 57.143% { transform: translate(761.9px,596.5px); } 64.286% { transform: translate(22.9px,497.6px); } 92.857% { transform: translate(22.9px,497.6px); } 100% { transform: translate(0px,0px); } }
@keyframes a13_t { 0% { transform: translate(0px,0px); } 21.428% { transform: translate(0px,0px); } 28.571% { transform: translate(922.1px,957.5px); } 64.286% { transform: translate(922.1px,957.5px); } 71.428% { transform: translate(657.7px,611.8px); } 92.857% { transform: translate(657.7px,611.8px); } 100% { transform: translate(0px,0px); } }
@keyframes a14_t { 0% { transform: translate(0px,0px); } 28.571% { transform: translate(0px,0px); } 35.714% { transform: translate(-1146px,795px); } 57.143% { transform: translate(-1146px,795px); } 64.286% { transform: translate(-1574.5px,-7.4px); } 92.857% { transform: translate(-1574.5px,-7.4px); } 100% { transform: translate(0px,0px); } }
@keyframes a15_t { 0% { transform: translate(0px,0px); } 28.571% { transform: translate(0px,0px); } 35.714% { transform: translate(-543.3px,-639.6px); } 64.286% { transform: translate(-543.3px,-639.6px); } 71.428% { transform: translate(-346.3px,-168.8px); } 92.857% { transform: translate(-346.3px,-168.8px); } 100% { transform: translate(0px,0px); } }
@keyframes a16_t { 0% { transform: translate(0px,0px); } 21.428% { transform: translate(0px,0px); } 28.571% { transform: translate(1170.3px,-68.3px); } 57.143% { transform: translate(1170.3px,-68.3px); } 64.286% { transform: translate(1276px,-470.8px); } 92.857% { transform: translate(1276px,-470.8px); } 100% { transform: translate(0px,0px); } }
@keyframes a17_t { 0% { transform: translate(0px,0px); } 28.571% { transform: translate(0px,0px); } 35.714% { transform: translate(1616.9px,43.1px); } 64.286% { transform: translate(1616.9px,43.1px); } 71.428% { transform: translate(571.6px,-566.2px); } 92.857% { transform: translate(571.6px,-566.2px); } 100% { transform: translate(0px,0px); } }
@keyframes a18_t { 0% { transform: translate(0px,0px); } 21.428% { transform: translate(0px,0px); } 28.571% { transform: translate(-564.4px,417.3px); } 57.143% { transform: translate(-564.4px,417.3px); } 64.286% { transform: translate(160.3px,99.2px); } 92.857% { transform: translate(160.3px,99.2px); } 100% { transform: translate(0px,0px); } }
@keyframes a19_t { 0% { transform: translate(0px,0px); } 28.571% { transform: translate(0px,0px); } 35.714% { transform: translate(807.4px,208.1px); } 64.286% { transform: translate(807.4px,208.1px); } 71.428% { transform: translate(-35.2px,542.2px); } 92.857% { transform: translate(-35.2px,542.2px); } 100% { transform: translate(0px,0px); } }
@keyframes a20_t { 0% { transform: translate(0px,0px); } 28.571% { transform: translate(0px,0px); } 35.714% { transform: translate(-1176.7px,306.1px); } 57.143% { transform: translate(-1176.7px,306.1px); } 64.286% { transform: translate(-451.2px,-351.6px); } 92.857% { transform: translate(-451.2px,-351.6px); } 100% { transform: translate(0px,0px); } }
</style><g clip-path="url(#ClipPath-1)"><rect width="1920" height="1080" fill="#a7a2b6"/><path stroke="#8c65f7" stroke-width="128" d="M-3.8 369.5l-364.4 450" transform="translate(-186,594.5) translate(186,-594.5)" style="animation: 7s linear infinite both a0_t;"/><path stroke="#6f3ff5" stroke-width="181" d="M336.2 956l-541-115" transform="translate(65.7,898.5) translate(-65.7,-898.5)" style="animation: 7s linear infinite both a1_t;"/><path stroke="#11bc92" stroke-width="17" d="M1425.3 571.3l-393.2-605.6" transform="translate(1228.7,268.5) translate(-1228.7,-268.5)" style="animation: 7s linear infinite both a2_t;"/><path stroke="#0e0333" stroke-width="293" d="M1149.6 665.2l505-71" transform="translate(1402.1,629.7) translate(-1402.1,-629.7)" style="animation: 7s linear infinite both a3_t;"/><path stroke="#757087" stroke-width="302" d="M879.3 687.4l-41.2 193.7" transform="translate(858.7,784.3) translate(-858.7,-784.3)" style="animation: 7s linear infinite both a4_t;"/><path stroke="#0e0333" stroke-width="248" d="M577.5 709.7l-502.3 290" transform="translate(326.3,854.7) translate(-326.3,-854.7)" style="animation: 7s linear infinite both a5_t;"/><path stroke="#8c65f7" stroke-width="824" d="M461.8 898.2l-616.6-300.8" transform="translate(153.5,747.8) translate(-153.5,-747.8)" style="animation: 7s linear infinite both a6_t;"/><path stroke="#5932c4" stroke-width="1149" d="M-562.1 678.3l185.6-692.6" transform="translate(-469.3,332) translate(469.3,-332)" style="animation: 7s linear infinite both a7_t;"/><path stroke="#5932c4" stroke-width="503" d="M405.6 659.3l740.6-170.9" transform="translate(775.9,573.8) translate(-775.9,-573.8)" style="animation: 7s linear infinite both a8_t;"/><path stroke="#a7a2b6" stroke-width="506" d="M1264.9 260l86 60.3" transform="translate(1307.9,290.2) translate(-1307.9,-290.2)" style="animation: 7s linear infinite both a9_t;"/><path stroke="#a7a2b6" stroke-width="961" d="M1749.9-80.6l111.4 632.2" transform="translate(1805.6,235.5) translate(-1805.6,-235.5)" style="animation: 7s linear infinite both a10_t;"/><path stroke="#757087" stroke-width="872" d="M1857.1 814.9l-485.5 502.9" transform="translate(1614.3,1066.3) translate(-1614.3,-1066.3)" style="animation: 7s linear infinite both a11_t;"/><path stroke="#c4c1cf" stroke-width="140" d="M324.7 359.5l-231.8-93.7" transform="translate(208.8,312.7) translate(-208.8,-312.7)" style="animation: 7s linear infinite both a12_t;"/><path stroke="#a7a2b6" stroke-width="397" d="M384.7 220.1l-223.6-553.5" transform="translate(272.9,-56.6) translate(-272.9,56.6)" style="animation: 7s linear infinite both a13_t;"/><path stroke="#5932c4" stroke-width="919" d="M1435 120.6l533.1 215.4" transform="translate(1701.6,228.3) translate(-1701.6,-228.3)" style="animation: 7s linear infinite both a14_t;"/><path stroke="#757087" stroke-width="347" d="M1212.1 583l258.5 750.7" transform="translate(1341.3,958.3) translate(-1341.3,-958.3)" style="animation: 7s linear infinite both a15_t;"/><path stroke="#02e2ac" stroke-width="626" d="M277.9 277.8l-280.6 660.9" transform="translate(137.6,608.3) translate(-137.6,-608.3)" style="animation: 7s linear infinite both a16_t;"/><path stroke="#8c65f7" stroke-width="1018" d="M263.8 676.9l-509.2 53.5" transform="translate(9.2,703.7) translate(-9.2,-703.7)" style="animation: 7s linear infinite both a17_t;"/><path stroke="#757087" stroke-width="11" d="M1352.2 419.8l-128.7-128.7" transform="translate(1287.9,355.4) translate(-1287.9,-355.4)" style="animation: 7s linear infinite both a18_t;"/><path stroke="#0e0333" stroke-width="297" d="M520.3 628.6l49-212.4" transform="translate(544.8,522.4) translate(-544.8,-522.4)" style="animation: 7s linear infinite both a19_t;"/><path stroke="#a7a2b6" stroke-width="979" d="M1485.7 534.9l165.3-91.7" transform="translate(1568.3,489.1) translate(-1568.3,-489.1)" style="animation: 7s linear infinite both a20_t;"/><path d="M410.8 611.8h98.8c0 10.1-0.5 19.4-1.3 27.7c-0.7 8.4-2.5 15.9-5 23c-3.6 10.1-8.4 18.9-14.4 26.7c-6.1 7.6-13.4 14.1-21.5 19.2c-8.1 5-17.2 9.1-27 11.6c-9.9 2.8-20.2 4-31.1 4c-14.9 0-28.6-2.5-40.9-7.3c-12.2-4.8-22.8-11.8-31.6-20.4c-8.9-9.1-15.7-19.7-20.5-32.1c-4.8-12.6-7.3-26.2-7.3-41.3c0-14.9 2.3-28.5 7.1-40.9c4.8-12.6 11.8-23.2 20.4-32c9.1-8.8 19.7-15.6 32.4-20.4c12.6-4.8 26.5-7.3 41.9-7.3c20 0 37.4 4.2 52.6 12.8c15.1 8.6 27 22 35.8 40.1l-47.2 19.4c-4.3-10.6-10.1-17.9-17.2-22.4c-6.8-4.6-14.9-6.8-23.7-6.8c-7.4 0-14.2 1.5-20.2 4.3c-6.1 2.7-11.4 6.5-15.7 11.8c-4.3 5.1-7.6 11.4-10.1 18.4c-2.3 7.3-3.6 15.4-3.6 24.2c0 8.1 1.1 15.7 3.1 22.5c2.3 6.8 5.3 12.9 9.6 17.9c4.3 5 9.6 9.1 15.6 11.9c6.4 2.7 13.7 4 21.8 4c4.8 0 9.6-0.5 14.1-1.5c4.6-1.3 8.6-3.1 12.1-5.3c3.8-2.5 6.9-5.8 9.1-9.6c2.3-3.8 4.1-8.6 4.8-14.1h-40.9v-38.1Zm344.3-44.1v156.3h-53v-156.4h-43v-45.3h139v45.3h-43Zm227.4 23.7c-11.6-14.2-25.8-21.2-42.7-21.2c-7.6 0-14.4 1.2-21 4c-6.3 2.8-11.6 6.6-16.4 11.1c-4.5 4.5-8.3 10.1-10.9 16.7c-2.5 6.5-3.7 13.3-3.7 20.9c0 7.5 1.2 14.6 3.8 21.2c2.7 6.5 6.3 12.1 10.8 16.9c4.8 4.8 10.4 8.5 16.7 11.1c6.3 2.7 13.1 4 20.4 4c16 0 30.4-6.8 43-20.4v59l-5.1 1.8c-7.5 2.7-14.6 4.5-21.4 5.8c-6.6 1.2-13.2 2-19.7 2c-13.2 0-26.1-2.5-38.2-7.3c-12.1-5.1-22.7-12.1-32.1-21.2c-9.1-9.1-16.6-20-22.2-32.3c-5.6-12.6-8.3-26.2-8.3-40.9c0-14.6 2.7-28.2 8.1-40.3c5.5-12.4 12.8-23 22.2-31.8c9.3-9.1 20.2-15.9 32.3-20.9c12.1-5.1 25-7.6 38.4-7.6c7.6 0 15.2 .8 22.5 2.5c7.6 1.5 15.4 4.1 23.5 7.3v59.6Zm104.1 31.7c0 7.6 1.5 14.7 4.3 21.2c2.8 6.6 6.8 12.1 11.6 16.9c4.8 4.8 10.6 8.6 17.2 11.1c6.5 2.5 13.6 3.8 20.9 3.8c7.4 0 14.2-1.3 20.8-3.8c6.5-2.8 12.3-6.5 17.4-11.1c5-4.8 9.1-10.3 11.9-16.9c2.7-6.5 4.2-13.3 4.2-21.2c0-7.8-1.5-14.6-4.2-21.1c-2.8-6.6-6.9-12.2-11.9-16.9c-4.8-4.8-10.6-8.4-17.5-10.9c-6.5-2.8-13.3-4-20.7-4c-7.3 0-14.1 1.2-20.9 4c-6.6 2.5-12.2 6.3-17.2 10.9c-4.8 4.7-8.8 10.3-11.6 16.9c-2.8 6.5-4.3 13.6-4.3 21.1Zm-52.1 0c0-14.1 2.6-27.5 7.9-39.6c5.3-12.3 12.6-23.2 21.9-32.2c9.4-9.1 20.5-16.4 33.4-21.5c13.1-5.3 27.5-7.8 42.9-7.8c15.4 0 29.8 2.5 42.7 7.8c13.2 5.1 24.3 12.1 33.6 21.5c9.6 9 16.9 19.9 22.3 32.2c5.3 12.1 7.8 25.5 7.8 39.6c0 14.2-2.5 27.5-7.8 39.9c-5.4 12.1-12.7 22.9-22.3 32c-9.3 9.1-20.4 16.4-33.6 21.7c-13.1 5.1-27.3 7.6-42.7 7.6c-15.6 0-30-2.5-42.9-7.6c-12.9-5.3-24-12.4-33.4-21.7c-9.3-9.1-16.6-19.9-21.9-32c-5.3-12.4-7.9-25.5-7.9-39.9Zm316.8-100.8v201.7h-53v-201.7h53Zm-742.7 0v201.7h-53v-201.7h53Zm798.3 201.7v-201.7h50.5l98.6 123.3v-123.3h53v201.7h-51l-98-123.3v123.3h-53.1Z" fill="#fff"/><g filter="url(#filter0_d)"><path d="M324.8 437v-45.8h13.6c2.4 0 4.5 .2 6.5 .6c1.9 .4 3.6 1 5 1.9c1.5 .9 2.6 2 3.4 3.5c.8 1.4 1.2 3.1 1.2 5.2c0 2.2-0.7 4.2-2 6.1c-1.3 1.9-3.3 3.2-6 3.9v.2c3.4 .6 5.9 1.7 7.7 3.5c1.8 1.9 2.7 4.3 2.7 7.5c0 2.2-0.4 4.2-1.2 5.9c-0.9 1.7-2.1 3.1-3.6 4.2c-1.5 1.1-3.4 2-5.5 2.5c-2.1 .5-4.5 .8-7 .8h-14.8Zm7-26.8h5.8c3.6 0 6.1-0.6 7.6-1.8c1.6-1.1 2.4-2.9 2.4-5.3c0-2.3-0.8-3.9-2.4-4.8c-1.7-0.9-4.1-1.4-7.4-1.4h-6v13.3Zm0 21.1h6.9c3.7 0 6.5-0.7 8.4-1.9c2-1.3 3-3.4 3-6.3c0-2.6-1-4.5-2.9-5.6c-1.9-1.1-4.7-1.7-8.5-1.7h-6.9v15.5Zm186.1 6.5c-2.4 0-4.5-0.3-6.5-1c-1.9-0.7-3.6-1.8-5-3.2c-1.4-1.5-2.5-3.4-3.2-5.7c-0.7-2.3-1.1-5.1-1.1-8.3v-28.4l7.1-0.1v28.9c0 4.2 .7 7.2 2.3 9c1.7 1.8 3.8 2.8 6.4 2.8c2.6-0.1 4.7-1 6.4-2.8c1.7-1.8 2.5-4.8 2.5-9v-28.8h6.8v28.4c0 3.2-0.4 6-1.1 8.3c-0.8 2.3-1.8 4.2-3.2 5.7c-1.3 1.4-3 2.5-5 3.2c-1.9 .7-4 1-6.4 1Zm163.7-0.8v-5.9h11.2v-34.1h-11.2v-5.8h29.4v5.8h-11.2v34.1h11.2v5.9h-29.4Zm181.1 0v-45.8h6.9v39.9h22v5.9h-28.9Zm175.4 0v-45.8h11.6c6.9 0 12.2 1.9 15.9 5.7c3.7 3.8 5.6 9.5 5.6 17c0 7.5-1.9 13.2-5.6 17.2c-3.6 3.9-8.8 5.9-15.6 5.9h-11.9Zm7-5.7h4.2c4.8 0 8.4-1.4 10.9-4.4c2.5-2.9 3.8-7.3 3.8-13c0-5.7-1.3-10-3.8-12.8c-2.5-2.9-6.1-4.3-10.9-4.3h-4.2v34.5Zm171.9 5.7v-5.9h11.2v-34.1h-11.2v-5.8h29.4v5.8h-11.2v34.1h11.2v5.9h-29.4Zm177.7 0v-45.8h7.4l13.4 27.2l4.3 9.6h.2c-0.1-2.3-0.4-4.7-0.6-7.3c-0.3-2.6-0.4-5.2-0.4-7.7v-21.8h6.7v45.8h-7.5l-13.3-27.2l-4.3-9.7h-0.2c.1 2.4 .3 4.9 .6 7.4c.2 2.6 .4 5 .4 7.5v22h-6.7Zm196.7 .8c-2.9 0-5.6-0.5-8.1-1.5c-2.4-1.1-4.6-2.6-6.4-4.6c-1.8-2.1-3.2-4.5-4.2-7.4c-1-3-1.5-6.3-1.5-10.1c0-3.8 .5-7.1 1.6-10c1-3 2.4-5.5 4.2-7.6c1.9-2 4-3.6 6.6-4.7c2.5-1.1 5.2-1.6 8.2-1.6c3 0 5.5 .6 7.7 1.8c2 1.2 3.8 2.5 5.1 3.9l-3.9 4.4c-1.1-1.2-2.3-2.1-3.7-2.9c-1.4-0.7-3.1-1.1-5.2-1.1c-2 0-3.8 .4-5.4 1.3c-1.7 .8-3.1 1.9-4.2 3.5c-1.2 1.5-2.1 3.3-2.8 5.5c-0.6 2.1-0.9 4.6-0.9 7.3c0 5.5 1.1 9.8 3.4 13c2.3 3.2 5.6 4.8 9.9 4.8c1.4 0 2.7-0.3 3.9-0.7c1.3-0.4 2.3-1 3.1-1.7v-10.9l-8.4-0.1v-5.7h14.9v19.8c-1.5 1.4-3.5 2.7-5.9 3.8c-2.4 1-5.1 1.5-8 1.5Z" fill="#fff"/></g></g><defs><filter id="filter0_d" x="269.799" y="335.31" width="1390.5" height="157.5" filterUnits="userSpaceOnUse" color-interpolation-filters="sRGB"><feFlood flood-opacity="0" result="BackgroundImageFix"/><feColorMatrix in="SourceAlpha" values="0 0 0 0 0 0 0 0 0 0 0 0 0 0 0 0 0 0 127 0" result="hardAlpha"/><feOffset/><feGaussianBlur stdDeviation="27.5"/><feComposite in2="hardAlpha" operator="out"/><feColorMatrix values="0 0 0 0 0 0 0 0 0 0 0 0 0 0 0 0 0 0 0.22 0"/><feBlend in2="BackgroundImageFix" result="effect1_dropShadow"/><feBlend in="SourceGraphic" in2="effect1_dropShadow" result="shape"/></filter><clipPath id="ClipPath-1"><rect width="1920" height="1080" fill="#fff"/></clipPath></defs></svg>