<svg width="188" height="58" viewBox="0 0 188 58" fill="none" xmlns="http://www.w3.org/2000/svg">
<rect x="1" y="1" width="186" height="56" rx="7" fill="white"/>
<path d="M49.666 37.718C49.666 36.494 49.948 35.396 50.512 34.424C51.088 33.452 51.862 32.696 52.834 32.156C53.818 31.604 54.892 31.328 56.056 31.328C57.388 31.328 58.57 31.658 59.602 32.318C60.646 32.966 61.402 33.89 61.87 35.09H59.404C59.08 34.43 58.63 33.938 58.054 33.614C57.478 33.29 56.812 33.128 56.056 33.128C55.228 33.128 54.49 33.314 53.842 33.686C53.194 34.058 52.684 34.592 52.312 35.288C51.952 35.984 51.772 36.794 51.772 37.718C51.772 38.642 51.952 39.452 52.312 40.148C52.684 40.844 53.194 41.384 53.842 41.768C54.49 42.14 55.228 42.326 56.056 42.326C56.812 42.326 57.478 42.164 58.054 41.84C58.63 41.516 59.08 41.024 59.404 40.364H61.87C61.402 41.564 60.646 42.488 59.602 43.136C58.57 43.784 57.388 44.108 56.056 44.108C54.88 44.108 53.806 43.838 52.834 43.298C51.862 42.746 51.088 41.984 50.512 41.012C49.948 40.04 49.666 38.942 49.666 37.718ZM71.8679 44.126C70.7039 44.126 69.6299 43.856 68.6459 43.316C67.6739 42.764 66.8999 42.002 66.3239 41.03C65.7599 40.046 65.4779 38.942 65.4779 37.718C65.4779 36.494 65.7599 35.396 66.3239 34.424C66.8999 33.452 67.6739 32.696 68.6459 32.156C69.6299 31.604 70.7039 31.328 71.8679 31.328C73.0439 31.328 74.1179 31.604 75.0899 32.156C76.0739 32.696 76.8479 33.452 77.4119 34.424C77.9759 35.396 78.2579 36.494 78.2579 37.718C78.2579 38.942 77.9759 40.046 77.4119 41.03C76.8479 42.002 76.0739 42.764 75.0899 43.316C74.1179 43.856 73.0439 44.126 71.8679 44.126ZM71.8679 42.344C72.6959 42.344 73.4339 42.158 74.0819 41.786C74.7299 41.402 75.2339 40.862 75.5939 40.166C75.9659 39.458 76.1519 38.642 76.1519 37.718C76.1519 36.794 75.9659 35.984 75.5939 35.288C75.2339 34.592 74.7299 34.058 74.0819 33.686C73.4339 33.314 72.6959 33.128 71.8679 33.128C71.0399 33.128 70.3019 33.314 69.6539 33.686C69.0059 34.058 68.4959 34.592 68.1239 35.288C67.7639 35.984 67.5839 36.794 67.5839 37.718C67.5839 38.642 67.7639 39.458 68.1239 40.166C68.4959 40.862 69.0059 41.402 69.6539 41.786C70.3019 42.158 71.0399 42.344 71.8679 42.344ZM95.3431 31.49V44H93.2911V35.432L89.4751 44H88.0531L84.2191 35.432V44H82.1671V31.49H84.3811L88.7731 41.3L93.1471 31.49H95.3431ZM113.106 31.49V44H111.054V35.432L107.238 44H105.816L101.982 35.432V44H99.9302V31.49H102.144L106.536 41.3L110.91 31.49H113.106ZM119.727 31.49V39.464C119.727 40.412 119.973 41.126 120.465 41.606C120.969 42.086 121.665 42.326 122.553 42.326C123.453 42.326 124.149 42.086 124.641 41.606C125.145 41.126 125.397 40.412 125.397 39.464V31.49H127.449V39.428C127.449 40.448 127.227 41.312 126.783 42.02C126.339 42.728 125.745 43.256 125.001 43.604C124.257 43.952 123.435 44.126 122.535 44.126C121.635 44.126 120.813 43.952 120.069 43.604C119.337 43.256 118.755 42.728 118.323 42.02C117.891 41.312 117.675 40.448 117.675 39.428V31.49H119.727ZM142.289 44H140.237L134.063 34.658V44H132.011V31.472H134.063L140.237 40.796V31.472H142.289V44ZM148.926 31.49V44H146.874V31.49H148.926ZM161.592 31.49V33.164H158.262V44H156.21V33.164H152.862V31.49H161.592ZM174.83 31.49L170.69 39.464V44H168.638V39.464L164.48 31.49H166.766L169.664 37.628L172.562 31.49H174.83Z" fill="#0E0333"/>
<path d="M54.112 19.692C54.416 19.74 54.692 19.864 54.94 20.064C55.196 20.264 55.396 20.512 55.54 20.808C55.692 21.104 55.768 21.42 55.768 21.756C55.768 22.18 55.66 22.564 55.444 22.908C55.228 23.244 54.912 23.512 54.496 23.712C54.088 23.904 53.604 24 53.044 24H49.924V15.636H52.924C53.492 15.636 53.976 15.732 54.376 15.924C54.776 16.108 55.076 16.36 55.276 16.68C55.476 17 55.576 17.36 55.576 17.76C55.576 18.256 55.44 18.668 55.168 18.996C54.904 19.316 54.552 19.548 54.112 19.692ZM51.016 19.248H52.852C53.364 19.248 53.76 19.128 54.04 18.888C54.32 18.648 54.46 18.316 54.46 17.892C54.46 17.468 54.32 17.136 54.04 16.896C53.76 16.656 53.356 16.536 52.828 16.536H51.016V19.248ZM52.948 23.1C53.492 23.1 53.916 22.972 54.22 22.716C54.524 22.46 54.676 22.104 54.676 21.648C54.676 21.184 54.516 20.82 54.196 20.556C53.876 20.284 53.448 20.148 52.912 20.148H51.016V23.1H52.948ZM58.4114 15.636V20.928C58.4114 21.672 58.5914 22.224 58.9514 22.584C59.3194 22.944 59.8274 23.124 60.4754 23.124C61.1154 23.124 61.6154 22.944 61.9754 22.584C62.3434 22.224 62.5274 21.672 62.5274 20.928V15.636H63.6194V20.916C63.6194 21.612 63.4794 22.2 63.1994 22.68C62.9194 23.152 62.5394 23.504 62.0594 23.736C61.5874 23.968 61.0554 24.084 60.4634 24.084C59.8714 24.084 59.3354 23.968 58.8554 23.736C58.3834 23.504 58.0074 23.152 57.7274 22.68C57.4554 22.2 57.3194 21.612 57.3194 20.916V15.636H58.4114ZM66.593 15.636V24H65.501V15.636H66.593ZM69.9662 23.112H72.8942V24H68.8742V15.636H69.9662V23.112ZM79.6218 15.636V16.524H77.3418V24H76.2498V16.524H73.9578V15.636H79.6218ZM88.4733 19.692C88.7773 19.74 89.0533 19.864 89.3013 20.064C89.5573 20.264 89.7573 20.512 89.9013 20.808C90.0533 21.104 90.1293 21.42 90.1293 21.756C90.1293 22.18 90.0213 22.564 89.8053 22.908C89.5893 23.244 89.2733 23.512 88.8573 23.712C88.4493 23.904 87.9653 24 87.4053 24H84.2853V15.636H87.2853C87.8533 15.636 88.3373 15.732 88.7373 15.924C89.1373 16.108 89.4373 16.36 89.6373 16.68C89.8373 17 89.9373 17.36 89.9373 17.76C89.9373 18.256 89.8013 18.668 89.5293 18.996C89.2653 19.316 88.9133 19.548 88.4733 19.692ZM85.3773 19.248H87.2133C87.7253 19.248 88.1213 19.128 88.4013 18.888C88.6813 18.648 88.8213 18.316 88.8213 17.892C88.8213 17.468 88.6813 17.136 88.4013 16.896C88.1213 16.656 87.7173 16.536 87.1893 16.536H85.3773V19.248ZM87.3093 23.1C87.8533 23.1 88.2773 22.972 88.5813 22.716C88.8853 22.46 89.0373 22.104 89.0373 21.648C89.0373 21.184 88.8773 20.82 88.5573 20.556C88.2373 20.284 87.8093 20.148 87.2733 20.148H85.3773V23.1H87.3093ZM97.4406 15.636L94.7166 20.844V24H93.6246V20.844L90.8886 15.636H92.1006L94.1646 19.872L96.2286 15.636H97.4406ZM106.58 15.636V16.524H104.3V24H103.208V16.524H100.916V15.636H106.58ZM114.308 15.636V24H113.216V20.208H108.956V24H107.864V15.636H108.956V19.308H113.216V15.636H114.308ZM117.204 16.524V19.32H120.252V20.22H117.204V23.1H120.612V24H116.112V15.624H120.612V16.524H117.204ZM131.44 18.06C131.208 17.572 130.872 17.196 130.432 16.932C129.992 16.66 129.48 16.524 128.896 16.524C128.312 16.524 127.784 16.66 127.312 16.932C126.848 17.196 126.48 17.58 126.208 18.084C125.944 18.58 125.812 19.156 125.812 19.812C125.812 20.468 125.944 21.044 126.208 21.54C126.48 22.036 126.848 22.42 127.312 22.692C127.784 22.956 128.312 23.088 128.896 23.088C129.712 23.088 130.384 22.844 130.912 22.356C131.44 21.868 131.748 21.208 131.836 20.376H128.5V19.488H133V20.328C132.936 21.016 132.72 21.648 132.352 22.224C131.984 22.792 131.5 23.244 130.9 23.58C130.3 23.908 129.632 24.072 128.896 24.072C128.12 24.072 127.412 23.892 126.772 23.532C126.132 23.164 125.624 22.656 125.248 22.008C124.88 21.36 124.696 20.628 124.696 19.812C124.696 18.996 124.88 18.264 125.248 17.616C125.624 16.96 126.132 16.452 126.772 16.092C127.412 15.724 128.12 15.54 128.896 15.54C129.784 15.54 130.568 15.76 131.248 16.2C131.936 16.64 132.436 17.26 132.748 18.06H131.44ZM136.076 15.636V24H134.984V15.636H136.076ZM143.625 15.636V16.524H141.345V24H140.253V16.524H137.961V15.636H143.625ZM144.621 19.812C144.621 18.996 144.805 18.264 145.173 17.616C145.541 16.96 146.041 16.448 146.673 16.08C147.313 15.712 148.021 15.528 148.797 15.528C149.709 15.528 150.505 15.748 151.185 16.188C151.865 16.628 152.361 17.252 152.673 18.06H151.365C151.133 17.556 150.797 17.168 150.357 16.896C149.925 16.624 149.405 16.488 148.797 16.488C148.213 16.488 147.689 16.624 147.225 16.896C146.761 17.168 146.397 17.556 146.133 18.06C145.869 18.556 145.737 19.14 145.737 19.812C145.737 20.476 145.869 21.06 146.133 21.564C146.397 22.06 146.761 22.444 147.225 22.716C147.689 22.988 148.213 23.124 148.797 23.124C149.405 23.124 149.925 22.992 150.357 22.728C150.797 22.456 151.133 22.068 151.365 21.564H152.673C152.361 22.364 151.865 22.984 151.185 23.424C150.505 23.856 149.709 24.072 148.797 24.072C148.021 24.072 147.313 23.892 146.673 23.532C146.041 23.164 145.541 22.656 145.173 22.008C144.805 21.36 144.621 20.628 144.621 19.812ZM158.151 24.084C157.375 24.084 156.667 23.904 156.027 23.544C155.387 23.176 154.879 22.668 154.503 22.02C154.135 21.364 153.951 20.628 153.951 19.812C153.951 18.996 154.135 18.264 154.503 17.616C154.879 16.96 155.387 16.452 156.027 16.092C156.667 15.724 157.375 15.54 158.151 15.54C158.935 15.54 159.647 15.724 160.287 16.092C160.927 16.452 161.431 16.956 161.799 17.604C162.167 18.252 162.351 18.988 162.351 19.812C162.351 20.636 162.167 21.372 161.799 22.02C161.431 22.668 160.927 23.176 160.287 23.544C159.647 23.904 158.935 24.084 158.151 24.084ZM158.151 23.136C158.735 23.136 159.259 23 159.723 22.728C160.195 22.456 160.563 22.068 160.827 21.564C161.099 21.06 161.235 20.476 161.235 19.812C161.235 19.14 161.099 18.556 160.827 18.06C160.563 17.556 160.199 17.168 159.735 16.896C159.271 16.624 158.743 16.488 158.151 16.488C157.559 16.488 157.031 16.624 156.567 16.896C156.103 17.168 155.735 17.556 155.463 18.06C155.199 18.556 155.067 19.14 155.067 19.812C155.067 20.476 155.199 21.06 155.463 21.564C155.735 22.068 156.103 22.456 156.567 22.728C157.039 23 157.567 23.136 158.151 23.136ZM165.304 15.636V24H164.212V15.636H165.304ZM174.161 24H173.069L168.677 17.34V24H167.585V15.624H168.677L173.069 22.272V15.624H174.161V24Z" fill="#0E0333"/>
<path fill-rule="evenodd" clip-rule="evenodd" d="M36.415 36.078C37.1065 36.6297 37.6985 37.1048 38.0633 37.403C38.1893 37.5062 38.2906 37.6357 38.36 37.7821C38.4294 37.9286 38.4651 38.0885 38.4645 38.2503L38.4533 43.2316C38.4207 43.4233 38.3204 43.5974 38.1703 43.7229C38.0203 43.8485 37.8301 43.9174 37.6335 43.9175H26.854C18.7791 43.9175 12.05 37.3839 12.1137 29.3992C12.1552 24.2605 14.9187 19.7638 19.0489 17.248V12.3717C19.0489 12.1839 19.0879 11.9981 19.1635 11.8258C19.2391 11.6535 19.3496 11.4984 19.4883 11.37C19.627 11.2417 19.7908 11.1429 19.9697 11.0798C20.1486 11.0167 20.3386 10.9905 20.5281 11.003C21.2653 11.0503 21.8227 11.6881 21.8227 12.4185V15.9369C22.9428 15.5451 24.1073 15.2911 25.2901 15.1806V12.3717C25.2901 12.1839 25.3291 11.998 25.4047 11.8258C25.4803 11.6535 25.5909 11.4983 25.7296 11.37C25.8683 11.2417 26.0322 11.1429 26.211 11.0798C26.3899 11.0167 26.58 10.9906 26.7695 11.003C27.5067 11.0503 28.0641 11.6881 28.0641 12.4185V15.1793C31.5742 15.5075 34.7223 17.0671 37.0591 19.4172C37.4967 19.8571 37.9055 20.3242 38.2829 20.8157C38.5727 21.193 38.5075 21.4841 38.1087 21.7469L36.4935 23.0437C37.7788 24.9629 38.4648 27.214 38.4656 29.5164C38.4704 31.8595 37.7547 34.1477 36.415 36.078ZM34.2823 34.3825C35.2267 32.932 35.7294 31.2428 35.7294 29.5164C35.7294 27.7507 35.1886 26.0743 34.2959 24.6878L30.9318 27.2041C31.319 27.9011 31.525 28.6823 31.5313 29.4775C31.5376 30.2728 31.344 31.0571 30.9679 31.76L31.0758 31.8453C31.5479 32.2181 32.8787 33.2694 34.2823 34.3825ZM35.6918 41.1743L35.7065 39.1608L28.8645 33.8007C28.1864 34.1404 27.4367 34.3172 26.6765 34.3166C23.9955 34.3166 21.8221 32.1675 21.8221 29.5162C21.8221 26.8648 23.9955 24.7157 26.6765 24.7157C27.425 24.7149 28.1635 24.886 28.8337 25.2157L34.496 20.8111C32.391 18.8752 29.778 17.8578 26.6765 17.8578C25.0022 17.8566 23.3471 18.2094 21.8221 18.8926V23.3441C21.8221 23.5319 21.783 23.7177 21.7075 23.89C21.6319 24.0623 21.5213 24.2174 21.3826 24.3457C21.244 24.474 21.0801 24.5728 20.9013 24.6359C20.7224 24.6991 20.5324 24.7252 20.3429 24.7128C19.6057 24.6655 19.0483 24.0277 19.0483 23.2971V20.6308C16.5175 22.7574 14.9049 25.9203 14.8875 29.4576C14.8554 35.9014 20.3055 41.1743 26.8222 41.1743H35.6918ZM28.4064 30.6592C28.635 30.3209 28.7571 29.9231 28.7571 29.5162C28.7571 28.9705 28.5378 28.4472 28.1477 28.0613C27.7575 27.6755 27.2283 27.4587 26.6765 27.4587C26.2649 27.4587 25.8627 27.5794 25.5205 27.8054C25.1784 28.0315 24.9117 28.3529 24.7542 28.7288C24.5968 29.1048 24.5555 29.5185 24.6358 29.9176C24.7161 30.3167 24.9143 30.6833 25.2052 30.971C25.4962 31.2588 25.867 31.4547 26.2705 31.5341C26.6741 31.6135 27.0925 31.5728 27.4727 31.417C27.8528 31.2613 28.1778 30.9976 28.4064 30.6592Z" fill="#0E0333"/>
<rect x="1" y="1" width="186" height="56" rx="7" stroke="#0E0333" stroke-width="2"/>
</svg>
