<svg width="26" height="32" viewBox="0 0 26 32" fill="none" xmlns="http://www.w3.org/2000/svg">
<g clip-path="url(#clip0_1382:6335)">
<rect width="25.28" height="32" fill="white"/>
<path fill-rule="evenodd" clip-rule="evenodd" d="M13.0009 0.940165V3.14017C12.1242 3.22752 11.2572 3.39488 10.4109 3.64017V0.980165C10.4122 0.731398 10.3207 0.491098 10.1543 0.306189C9.98784 0.121279 9.75847 0.00503813 9.51095 -0.0198358C9.3839 -0.0294298 9.25623 -0.0128158 9.13587 0.0289756C9.01551 0.070767 8.90502 0.136844 8.81126 0.223108C8.71749 0.309372 8.64245 0.413983 8.59079 0.530451C8.53913 0.646918 8.51196 0.772759 8.51095 0.900165V4.32017C5.48112 5.63841 2.99503 7.95586 1.46755 10.8858C-0.0599204 13.8157 -0.536375 17.1809 0.117703 20.4197C0.77178 23.6585 2.51682 26.575 5.06161 28.6825C7.6064 30.79 10.797 31.9611 14.1009 32.0002H24.6809C24.8366 31.9976 24.9852 31.9346 25.0953 31.8245C25.2054 31.7144 25.2684 31.5659 25.2709 31.4102V26.0602C25.2702 25.9657 25.2483 25.8727 25.2067 25.7879C25.1652 25.703 25.1051 25.6287 25.0309 25.5702L23.1109 24.1102C24.5222 22.158 25.2727 19.8059 25.2529 17.3971C25.2331 14.9883 24.4441 12.6489 23.0009 10.7202H22.9509L25.1409 8.72017C25.1969 8.66443 25.2413 8.59819 25.2715 8.52526C25.3018 8.45233 25.3174 8.37414 25.3174 8.29517C25.3174 8.2162 25.3018 8.13801 25.2715 8.06508C25.2413 7.99215 25.1969 7.92591 25.1409 7.87017C23.8326 6.42917 22.2489 5.26473 20.4834 4.4455C18.7178 3.62627 16.8061 3.16883 14.8609 3.10017V1.00017C14.8705 0.873117 14.8539 0.745452 14.8121 0.62509C14.7703 0.504729 14.7043 0.394238 14.618 0.300473C14.5317 0.206708 14.4271 0.131668 14.3107 0.0800085C14.1942 0.0283493 14.0684 0.00117253 13.9409 0.000164251V0.000164251C13.8171 -0.0011744 13.6943 0.0222253 13.5796 0.0689907C13.465 0.115756 13.3608 0.184946 13.2733 0.272501C13.1857 0.360056 13.1165 0.464214 13.0698 0.578865C13.023 0.693515 12.9996 0.816351 13.0009 0.940165V0.940165ZM17.7709 20.0502C18.2861 19.3647 18.5818 18.5394 18.6193 17.6827C18.6568 16.826 18.4343 15.9781 17.9809 15.2502L20.9809 12.5702C22.0051 14.0176 22.5551 15.7471 22.5551 17.5202C22.5551 19.2933 22.0051 21.0228 20.9809 22.4702L17.7709 20.0502ZM10.3209 11.2902V6.37017C12.1737 5.70426 14.1631 5.51007 16.1097 5.80511C18.0562 6.10015 19.8987 6.87514 21.4709 8.06017C21.5031 8.08924 21.5288 8.12472 21.5464 8.16434C21.564 8.20396 21.5731 8.24682 21.5731 8.29017C21.5731 8.33352 21.564 8.37639 21.5464 8.416C21.5288 8.45562 21.5031 8.49111 21.4709 8.52017L16.0009 13.5902C15.4512 13.3639 14.8602 13.2553 14.266 13.2711C13.6717 13.287 13.0874 13.4271 12.5505 13.6823C12.0137 13.9375 11.5362 14.3023 11.1487 14.7532C10.7613 15.2041 10.4725 15.731 10.3009 16.3002C10.0377 17.1771 10.0606 18.115 10.3663 18.9781C10.6719 19.8411 11.2445 20.5844 12.0009 21.1002C12.5153 21.4317 13.0949 21.6489 13.7005 21.7369C14.3061 21.8249 14.9235 21.7817 15.5109 21.6102L22.6109 27.0002C22.6453 27.0301 22.6729 27.0669 22.6919 27.1083C22.7108 27.1497 22.7207 27.1947 22.7209 27.2402V29.1302C22.7223 29.17 22.7155 29.2096 22.701 29.2466C22.6864 29.2837 22.6643 29.3173 22.6362 29.3454C22.608 29.3736 22.5744 29.3956 22.5374 29.4102C22.5004 29.4248 22.4607 29.4316 22.4209 29.4302H14.3209C11.6936 29.4439 9.13626 28.584 7.0509 26.9858C4.96554 25.3876 3.47045 23.1417 2.80068 20.6012C2.13091 18.0606 2.32444 15.3695 3.35086 12.951C4.37727 10.5324 6.17835 8.52352 8.47095 7.24017V11.2402C8.46961 11.3627 8.49275 11.4842 8.53901 11.5976C8.58527 11.7111 8.65373 11.8141 8.74035 11.9008C8.82698 11.9874 8.93004 12.0558 9.04347 12.1021C9.15691 12.1484 9.27845 12.1715 9.40095 12.1702C9.63744 12.168 9.86422 12.0758 10.0351 11.9123C10.206 11.7488 10.3082 11.5263 10.3209 11.2902ZM16.0009 17.5302C15.9991 17.8638 15.902 18.1899 15.7209 18.4702C15.4904 18.8149 15.1398 19.0616 14.7374 19.1621C14.335 19.2626 13.9096 19.2097 13.544 19.0138C13.1784 18.8179 12.8988 18.493 12.7596 18.1023C12.6204 17.7116 12.6316 17.2831 12.7909 16.9002C12.919 16.5917 13.1345 16.3275 13.4109 16.1402C13.6617 15.9706 13.954 15.8728 14.2563 15.8573C14.5585 15.8419 14.8593 15.9094 15.126 16.0525C15.3927 16.1956 15.6152 16.409 15.7694 16.6694C15.9236 16.9299 16.0037 17.2275 16.0009 17.5302V17.5302Z" fill="#757087"/>
</g>
<defs>
<clipPath id="clip0_1382:6335">
<rect width="25.28" height="32" fill="white"/>
</clipPath>
</defs>
</svg>
