<svg width="1920" height="1080" viewBox="0 0 1920 1080" fill="none" xmlns="http://www.w3.org/2000/svg">
<rect width="1920" height="1080" fill="#0E0333"/>
<path d="M1002.94 501.994C1070.86 569.907 1179.8 569.907 1246.3 501.994C1254.79 493.504 1261.86 485.015 1267.52 475.111C1201.02 518.972 1109.06 511.898 1049.63 453.888C990.21 394.464 983.136 303.913 1027 236C1017.09 241.659 1008.6 248.734 1000.11 257.223C935.03 325.136 935.03 434.08 1002.94 501.994Z" fill="#FFCC00"/>
<path d="M910.977 340.699L722.801 561.417C637.909 661.872 649.228 673.191 749.683 588.299L898.244 460.962C892.584 421.346 896.829 380.315 910.977 340.699Z" fill="#6F3FF5"/>
<path d="M1048.22 608.108L919.465 759.498C834.574 859.953 845.893 871.272 946.348 786.38L1172.73 592.544C1133.11 608.108 1089.25 613.767 1048.22 608.108Z" fill="#6F3FF5"/>
<path d="M953.424 551.514C946.35 544.44 936.445 533.121 929.371 526.046L777.981 702.904C669.037 825.997 681.77 838.731 804.863 729.786L984.551 579.811C976.062 574.152 960.498 560.003 953.424 551.514Z" fill="#6F3FF5"/>
<circle cx="255" cy="186" r="7" fill="#FFCC00"/>
<circle cx="1682" cy="921" r="10" fill="#6F3FF5"/>
<circle cx="1832" cy="429" r="10" fill="#6F3FF5"/>
<circle cx="164" cy="975" r="10" fill="#FFCC00"/>
<circle cx="352" cy="708" r="10" fill="#6F3FF5"/>
<circle cx="1408" cy="106" r="10" fill="#FFCC00"/>
<circle cx="1255.5" cy="869.5" r="7.5" fill="#FFCC00"/>
</svg>
